HIERARCHY
ROOT Hips
{
    OFFSET   0.000000   0.000000   0.000000
    CHANNELS 6 Xposition Yposition Zposition Zrotation Xrotation Yrotation
    JOINT Chest
    {
        OFFSET   0.000000   8.007230   0.000000
        CHANNELS 3 Zrotation Xrotation Yrotation
        JOINT Chest2
        {
            OFFSET   0.000000  22.077100   0.000000
            CHANNELS 3 Zrotation Xrotation Yrotation
            JOINT Neck
            {
                OFFSET   0.000000  23.255100   0.000000
                CHANNELS 3 Zrotation Xrotation Yrotation
                JOINT Head
                {
                    OFFSET   0.000000  14.370100   1.956600
                    CHANNELS 3 Zrotation Xrotation Yrotation
                    End Site
                    {
                        OFFSET   0.000000  19.566000   0.000000
                    }
                }
            }
            JOINT LeftCollar
            {
                OFFSET   3.911900  19.017000  -0.467063
                CHANNELS 3 Zrotation Xrotation Yrotation
                JOINT LeftShoulder
                {
                    OFFSET  10.383700   0.000000   0.000000
                    CHANNELS 3 Zrotation Xrotation Yrotation
                    JOINT LeftElbow
                    {
                        OFFSET  26.662100   0.001193   0.000980
                        CHANNELS 3 Zrotation Xrotation Yrotation
                        JOINT LeftWrist
                        {
                            OFFSET  28.869000  -0.000059  -0.000082
                            CHANNELS 3 Zrotation Xrotation Yrotation
                            JOINT LeftFinger0
                            {
                                OFFSET   2.044650  -2.323450   3.252850
                                CHANNELS 3 Zrotation Xrotation Yrotation
                                JOINT LeftFinger01
                                {
                                    OFFSET   3.088130   0.000000   0.000000
                                    CHANNELS 3 Zrotation Xrotation Yrotation
                                    JOINT LeftFinger02
                                    {
                                        OFFSET   2.639460   0.000000   0.000000
                                        CHANNELS 3 Zrotation Xrotation Yrotation
                                        End Site
                                        {
                                            OFFSET   2.582190   0.000000   0.000000
                                        }
                                    }
                                }
                            }
                            JOINT LeftFinger1
                            {
                                OFFSET   8.364480   0.000000   3.252850
                                CHANNELS 3 Zrotation Xrotation Yrotation
                                JOINT LeftFinger11
                                {
                                    OFFSET   4.646930   0.000000   0.000000
                                    CHANNELS 3 Zrotation Xrotation Yrotation
                                    JOINT LeftFinger12
                                    {
                                        OFFSET   2.323470   0.000000   0.000000
                                        CHANNELS 3 Zrotation Xrotation Yrotation
                                        End Site
                                        {
                                            OFFSET   2.273050   0.000000   0.000000
                                        }
                                    }
                                }
                            }
                            JOINT LeftFinger2
                            {
                                OFFSET   8.364490   0.000016   1.078090
                                CHANNELS 3 Zrotation Xrotation Yrotation
                                JOINT LeftFinger21
                                {
                                    OFFSET   5.111610   0.000000   0.000000
                                    CHANNELS 3 Zrotation Xrotation Yrotation
                                    JOINT LeftFinger22
                                    {
                                        OFFSET   2.788150   0.000016   0.000000
                                        CHANNELS 3 Zrotation Xrotation Yrotation
                                        End Site
                                        {
                                            OFFSET   2.727660   0.000000   0.000000
                                        }
                                    }
                                }
                            }
                            JOINT LeftFinger3
                            {
                                OFFSET   7.899780   0.000015  -1.078090
                                CHANNELS 3 Zrotation Xrotation Yrotation
                                JOINT LeftFinger31
                                {
                                    OFFSET   4.646930   0.000000   0.000000
                                    CHANNELS 3 Zrotation Xrotation Yrotation
                                    JOINT LeftFinger32
                                    {
                                        OFFSET   2.323470   0.000000   0.000000
                                        CHANNELS 3 Zrotation Xrotation Yrotation
                                        End Site
                                        {
                                            OFFSET   2.273050   0.000000   0.000000
                                        }
                                    }
                                }
                            }
                            JOINT LeftFinger4
                            {
                                OFFSET   7.435090   0.000000  -3.252850
                                CHANNELS 3 Zrotation Xrotation Yrotation
                                JOINT LeftFinger41
                                {
                                    OFFSET   3.717550   0.000000   0.000000
                                    CHANNELS 3 Zrotation Xrotation Yrotation
                                    JOINT LeftFinger42
                                    {
                                        OFFSET   1.858770   0.000000   0.000000
                                        CHANNELS 3 Zrotation Xrotation Yrotation
                                        End Site
                                        {
                                            OFFSET   1.818440   0.000000   0.000000
                                        }
                                    }
                                }
                            }
                        }
                    }
                }
            }
            JOINT RightCollar
            {
                OFFSET  -3.911910  19.017000  -0.467062
                CHANNELS 3 Zrotation Xrotation Yrotation
                JOINT RightShoulder
                {
                    OFFSET -10.383700   0.000014   0.000000
                    CHANNELS 3 Zrotation Xrotation Yrotation
                    JOINT RightElbow
                    {
                        OFFSET -26.662100   0.001225   0.001091
                        CHANNELS 3 Zrotation Xrotation Yrotation
                        JOINT RightWrist
                        {
                            OFFSET -28.869000  -0.000020  -0.000085
                            CHANNELS 3 Zrotation Xrotation Yrotation
                            JOINT RightFinger0
                            {
                                OFFSET  -2.044650  -2.323490   3.252850
                                CHANNELS 3 Zrotation Xrotation Yrotation
                                JOINT RightFinger01
                                {
                                    OFFSET  -3.088130   0.000000   0.000000
                                    CHANNELS 3 Zrotation Xrotation Yrotation
                                    JOINT RightFinger02
                                    {
                                        OFFSET  -2.639460   0.000000   0.000000
                                        CHANNELS 3 Zrotation Xrotation Yrotation
                                        End Site
                                        {
                                            OFFSET  -2.582190   0.000000   0.000000
                                        }
                                    }
                                }
                            }
                            JOINT RightFinger1
                            {
                                OFFSET  -8.364480   0.000000   3.252850
                                CHANNELS 3 Zrotation Xrotation Yrotation
                                JOINT RightFinger11
                                {
                                    OFFSET  -4.646930   0.000000   0.000000
                                    CHANNELS 3 Zrotation Xrotation Yrotation
                                    JOINT RightFinger12
                                    {
                                        OFFSET  -2.323470   0.000000   0.000000
                                        CHANNELS 3 Zrotation Xrotation Yrotation
                                        End Site
                                        {
                                            OFFSET  -2.273050   0.000000   0.000000
                                        }
                                    }
                                }
                            }
                            JOINT RightFinger2
                            {
                                OFFSET  -8.364480   0.000000   1.078090
                                CHANNELS 3 Zrotation Xrotation Yrotation
                                JOINT RightFinger21
                                {
                                    OFFSET  -5.111620   0.000000   0.000000
                                    CHANNELS 3 Zrotation Xrotation Yrotation
                                    JOINT RightFinger22
                                    {
                                        OFFSET  -2.788160   0.000000   0.000000
                                        CHANNELS 3 Zrotation Xrotation Yrotation
                                        End Site
                                        {
                                            OFFSET  -2.727660   0.000000   0.000000
                                        }
                                    }
                                }
                            }
                            JOINT RightFinger3
                            {
                                OFFSET  -7.899780   0.000000  -1.078090
                                CHANNELS 3 Zrotation Xrotation Yrotation
                                JOINT RightFinger31
                                {
                                    OFFSET  -4.646930   0.000000   0.000000
                                    CHANNELS 3 Zrotation Xrotation Yrotation
                                    JOINT RightFinger32
                                    {
                                        OFFSET  -2.323470   0.000000   0.000000
                                        CHANNELS 3 Zrotation Xrotation Yrotation
                                        End Site
                                        {
                                            OFFSET  -2.273050   0.000000   0.000000
                                        }
                                    }
                                }
                            }
                            JOINT RightFinger4
                            {
                                OFFSET  -7.435090   0.000000  -3.252850
                                CHANNELS 3 Zrotation Xrotation Yrotation
                                JOINT RightFinger41
                                {
                                    OFFSET  -3.717550   0.000000   0.000000
                                    CHANNELS 3 Zrotation Xrotation Yrotation
                                    JOINT RightFinger42
                                    {
                                        OFFSET  -1.858760   0.000000   0.000000
                                        CHANNELS 3 Zrotation Xrotation Yrotation
                                        End Site
                                        {
                                            OFFSET  -1.818440   0.000000   0.000000
                                        }
                                    }
                                }
                            }
                        }
                    }
                }
            }
        }
    }
    JOINT LeftHip
    {
        OFFSET   9.783030   0.000000   0.000000
        CHANNELS 3 Zrotation Xrotation Yrotation
        JOINT LeftKnee
        {
            OFFSET   0.000063 -41.789100   0.000608
            CHANNELS 3 Zrotation Xrotation Yrotation
            JOINT LeftAnkle
            {
                OFFSET   0.000048 -41.133200  -0.000184
                CHANNELS 3 Zrotation Xrotation Yrotation
                JOINT LeftToe
                {
                    OFFSET   0.000000  -6.358960  14.674500
                    CHANNELS 3 Zrotation Xrotation Yrotation
                    End Site
                    {
                        OFFSET   0.000000   0.000000   3.913200
                    }
                }
            }
        }
    }
    JOINT RightHip
    {
        OFFSET  -9.783030   0.000000   0.000000
        CHANNELS 3 Zrotation Xrotation Yrotation
        JOINT RightKnee
        {
            OFFSET   0.000071 -41.789100   0.001239
            CHANNELS 3 Zrotation Xrotation Yrotation
            JOINT RightAnkle
            {
                OFFSET   0.000037 -41.133200  -0.000166
                CHANNELS 3 Zrotation Xrotation Yrotation
                JOINT RightToe
                {
                    OFFSET   0.000000  -6.358960  14.674500
                    CHANNELS 3 Zrotation Xrotation Yrotation
                    End Site
                    {
                        OFFSET   0.000000   0.000000   3.913200
                    }
                }
            }
        }
    }
}
MOTION
Frames: 4
Frame Time:   0.016667
  1.277370  89.309400   3.849760  -0.775593  -6.341370   1.788170   1.494280   6.416930  -2.340650   3.283730  12.764400  -4.896540  -0.894596  -1.846160  -0.028656  -1.473020  -3.741420  11.121900 -11.222400  -4.416990  13.357400 -81.442100  -4.694280  -5.819940   2.413970 -10.520200 -10.236200  11.121500 -38.749300   5.891300  37.442800  28.851200 -48.746800 -33.047800   0.005326   0.003525 -11.523900   0.004851  -0.005370 -21.816600  -0.762092   1.897470 -17.860100   0.005232  -0.000293 -12.502000   0.004664  -0.005167 -27.128000  -4.300920   8.324120 -28.913500   0.005065  -0.000352 -19.256400   0.003322   0.003269 -25.684600  -4.088570   8.425530 -25.983900   0.003963   0.004179 -17.305300   0.003438   0.004774 -25.961900  -4.130670   8.407250 -39.400600   0.001073   0.003271 -26.240800   0.003090   0.006665  10.607000   1.596880  15.844800  67.973600 -13.482700   3.676290  -0.300829 -18.224500   9.332790 -26.765300 -53.249400 -10.510400 -45.384800  31.812100  61.710200  20.953400  -0.004065   0.001612   5.476680   0.000848   0.007971  22.188300   0.481913   1.188800  18.158400   0.005265   0.006625  12.710900   0.003182   0.003076  21.266700  -1.326310  -3.400180  21.305900   0.004133   0.005320  14.189700   0.003917   0.000836  22.744100  -2.257420  -5.364370  22.850300   0.003697   0.004034  15.218300   0.002787   0.001723  26.039200  -2.562650  -5.226390  39.235100   0.007511   0.004056  26.130500   0.006262  -0.004649   2.153770  10.523500   2.668710  -0.340599   0.185103  13.155800  -1.849450  -4.861110   0.561635  -0.000000   0.000000   0.000000  -1.420100  10.996700  -4.452230   1.168930   0.371424 -12.785700   0.420946  -3.955500  -2.145870  -0.000000   0.000000   0.000000
  1.250480  89.309200   3.893980  -0.778775  -6.251060   1.828880   1.496100   6.316230  -2.360320   3.284380  12.562500  -4.931840  -0.999111  -1.852150  -0.032160  -1.645980  -3.752290  11.351300 -11.182200  -4.129920  13.298500 -80.705900  -4.377450  -5.402160   2.169210 -11.070800 -10.532100  11.597300 -37.522600   5.918830  38.057200  30.119800 -49.109700 -32.953000   0.005326   0.003512 -11.476500   0.004851  -0.005370 -22.009200  -0.768585   1.894110 -18.017800   0.005233  -0.000500 -12.612400   0.004671  -0.005176 -27.213700  -4.290350   8.273690 -29.321600   0.008256  -0.000637 -19.528200   0.003267   0.003266 -25.970600  -4.108280   8.359860 -26.268300   0.003959   0.004187 -17.494700   0.003438   0.004765 -26.203300  -4.142800   8.345450 -39.760900   0.001561   0.003274 -26.480800   0.003088   0.006664  10.334000   1.772710  15.479900  67.880700 -14.007800   3.150280  -0.222862 -18.334200   9.518520 -26.709500 -52.154600 -10.030800 -45.779800  32.473900  62.423200  20.997800  -0.004579   0.001832   5.498890   0.000851   0.008127  22.332000   0.505564   1.235540  18.275600   0.005261   0.006622  12.792900   0.003182   0.003025  21.499400  -1.344670  -3.406450  21.537600   0.004140   0.005948  14.344000   0.003917   0.001060  22.880800  -2.291880  -5.411310  22.987500   0.003679   0.004698  15.309700   0.002770   0.002054  26.145100  -2.596920  -5.272890  39.394700   0.007540   0.004773  26.236800   0.006293  -0.004651   2.181340  10.453300   2.687880  -0.332740   0.182274  13.134000  -1.879500  -4.865940   0.521923  -0.000000   0.000000   0.000000  -1.401640  10.917900  -4.457810   1.187740   0.408402 -12.791000   0.404835  -4.006540  -2.182830  -0.000000   0.000000  -0.000000
  1.223770  89.309100   3.934960  -0.787709  -6.175890   1.834760   1.499700   6.226120  -2.389310   3.290070  12.381300  -4.986940  -1.104040  -1.851720  -0.035633  -1.821000  -3.748730  11.604900 -11.113000  -3.802560  13.312300 -80.162400  -4.367660  -5.150900   1.950170 -11.326600 -10.739400  12.171300 -35.619800   5.904300  38.733500  31.471200 -49.453300 -32.921100   0.005329   0.003493 -11.460600   0.004850  -0.005371 -22.351600  -0.779005   1.894830 -18.297800   0.005237  -0.000720 -12.808500   0.004665  -0.005175 -27.314300  -4.276880   8.214030 -29.818400   0.010426  -0.000924 -19.859100   0.003210   0.003277 -26.279000  -4.127890   8.286200 -26.571100   0.003957   0.004184 -17.696400   0.003440   0.004766 -26.421400  -4.145960   8.278030 -40.084100   0.002033   0.003270 -26.696000   0.003089   0.006665  10.022300   1.966120  15.137700  67.859200 -14.512800   2.833580  -0.264504 -18.325400   9.511750 -26.403300 -50.397900  -9.183810 -46.304300  33.381500  63.415300  21.128400  -0.004863   0.001954   5.564210   0.000849   0.008206  22.520500   0.518249   1.245140  18.428800   0.005251   0.006625  12.900200   0.003183   0.002975  21.753900  -1.370900  -3.427720  21.791800   0.004142   0.006279  14.513300   0.003910   0.001291  23.068500  -2.321260  -5.434380  23.176000   0.003661   0.005018  15.435200   0.002849   0.002387  26.273000  -2.622050  -5.296110  39.587400   0.007556   0.005118  26.365200   0.006311  -0.004653   2.210940  10.393800   2.710820  -0.327698   0.187623  13.120700  -1.907170  -4.877840   0.495881  -0.000000   0.000000   0.000000  -1.376270  10.856200  -4.454930   1.198410   0.424092 -12.790300   0.385258  -4.039170  -2.203860   0.000000   0.000000   0.000000
  1.196300  89.309000   3.972020  -0.797979  -6.117300   1.835430   1.503300   6.137950  -2.420520   3.296000  12.204000  -5.046570  -1.209900  -1.848730  -0.038926  -1.993400  -3.743810  11.866700 -11.026100  -3.445860  13.359600 -79.726500  -4.367020  -5.000350   1.733630 -11.387700 -10.885800  12.776200 -33.125600   5.852310  39.368600  32.752700 -49.848500 -32.916600   0.005333   0.003481 -11.458300   0.004848  -0.005372 -22.768700  -0.798626   1.899800 -18.638600   0.005240  -0.000941 -13.047100   0.004659  -0.005173 -27.412300  -4.262990   8.154890 -30.315400   0.012362  -0.001208 -20.190000   0.003152   0.003288 -26.551200  -4.138910   8.216050 -26.863600   0.003957   0.004181 -17.891200   0.003441   0.004768 -26.605100  -4.146980   8.213280 -40.356000   0.002498   0.003262 -26.877100   0.003089   0.006667   9.696840   2.189460  14.816600  67.884400 -15.010200   2.725150  -0.327561 -18.263700   9.464410 -26.049500 -48.065900  -8.165090 -46.812000  34.346300  64.499800  21.437400  -0.005766   0.002349   5.718710   0.000847   0.008443  22.792200   0.522540   1.246520  18.649800   0.005243   0.006648  13.054900   0.003189   0.002930  22.070200  -1.430300  -3.523130  22.108600   0.004147   0.007303  14.724300   0.003902   0.001525  23.321400  -2.377340  -5.497000  23.430600   0.003651   0.005961  15.604800   0.003406   0.002722  26.465300  -2.675910  -5.358840  39.878400   0.007607   0.006133  26.559000   0.006369  -0.004655   2.240650  10.349300   2.735310  -0.323851   0.195519  13.116300  -1.931980  -4.891780   0.485077  -0.000000   0.000000   0.000000  -1.347600  10.810700  -4.451080   1.204020   0.429256 -12.785200   0.364629  -4.062930  -2.210950  -0.000000   0.000000  -0.000000
